<?xml version="1.0" encoding="UTF-8"?>
<svg xmlns="http://www.w3.org/2000/svg" xmlns:xlink="http://www.w3.org/1999/xlink" viewBox="0 0 150 150" width="150px" height="150px">
<g id="surface76949638">
<path style=" stroke:none;fill-rule:nonzero;fill:#fcf4e3;fill-opacity:1;" d="M 123 12 L 27 12 C 18.71875 12 12 18.71875 12 27 L 12 123 C 12 131.28125 18.71875 138 27 138 L 123 138 C 131.28125 138 138 131.28125 138 123 L 138 27 C 138 18.71875 131.28125 12 123 12 Z M 111 57 L 105 57 C 98.578125 57 96 58.5 96 63 L 96 72 L 111 72 L 108 87 L 96 87 L 96 132 L 81 132 L 81 87 L 69 87 L 69 72 L 81 72 L 81 63 C 81 51 87 42 99 42 C 107.699219 42 111 45 111 45 Z M 111 57 "/>
</g>
</svg>
