<?xml version="1.0" encoding="UTF-8"?>
<svg xmlns="http://www.w3.org/2000/svg" xmlns:xlink="http://www.w3.org/1999/xlink" viewBox="0 0 144 144" width="144px" height="144px">
<g id="surface108427976">
<path style=" stroke:none;fill-rule:nonzero;fill:rgb(87.058824%,76.078433%,54.901963%);fill-opacity:1;" d="M 48 18 C 31.433594 18 18 31.433594 18 48 L 18 96 C 18 112.566406 31.433594 126 48 126 L 96 126 C 112.566406 126 126 112.566406 126 96 L 126 48 C 126 31.433594 112.566406 18 96 18 Z M 108 30 C 111.3125 30 114 32.6875 114 36 C 114 39.3125 111.3125 42 108 42 C 104.6875 42 102 39.3125 102 36 C 102 32.6875 104.6875 30 108 30 Z M 72 42 C 88.566406 42 102 55.433594 102 72 C 102 88.566406 88.566406 102 72 102 C 55.433594 102 42 88.566406 42 72 C 42 55.433594 55.433594 42 72 42 Z M 72 54 C 62.058594 54 54 62.058594 54 72 C 54 81.941406 62.058594 90 72 90 C 81.941406 90 90 81.941406 90 72 C 90 62.058594 81.941406 54 72 54 Z M 72 54 "/>
</g>
</svg>
