<?xml version="1.0" encoding="UTF-8"?>
<svg xmlns="http://www.w3.org/2000/svg" xmlns:xlink="http://www.w3.org/1999/xlink" viewBox="0 0 150 150" width="150px" height="150px">
<g id="surface77000899">
<path style=" stroke:none;fill-rule:nonzero;fill:#dec28c;fill-opacity:1;" d="M 118.75 18.75 L 31.25 18.75 C 24.34375 18.75 18.75 24.34375 18.75 31.25 L 18.75 118.75 C 18.75 125.65625 24.34375 131.25 31.25 131.25 L 118.75 131.25 C 125.65625 131.25 131.25 125.65625 131.25 118.75 L 131.25 31.25 C 131.25 24.34375 125.65625 18.75 118.75 18.75 Z M 106.5625 59.460938 C 106.5625 60 106.5625 60.53125 106.5625 61.605469 C 106.5625 81.960938 91.023438 105.539062 62.632812 105.539062 C 54.0625 105.539062 46.023438 102.855469 39.0625 98.574219 C 40.132812 98.574219 41.742188 98.574219 42.8125 98.574219 C 49.773438 98.574219 56.742188 95.894531 62.101562 92.144531 C 55.136719 92.144531 49.78125 87.324219 47.636719 81.429688 C 48.707031 81.429688 49.78125 81.96875 50.320312 81.96875 C 51.925781 81.96875 53 81.96875 54.605469 81.429688 C 47.644531 79.824219 42.289062 73.929688 42.289062 66.429688 C 44.429688 67.5 46.574219 68.039062 49.25 68.574219 C 44.960938 64.824219 42.289062 60.539062 42.289062 55.179688 C 42.289062 52.5 42.824219 49.824219 44.429688 47.679688 C 51.929688 56.789062 63.179688 63.21875 76.039062 63.75 C 76.039062 62.679688 75.5 61.605469 75.5 60 C 75.5 51.429688 82.460938 44.460938 91.039062 44.460938 C 95.324219 44.460938 99.605469 46.070312 102.289062 49.28125 C 106.039062 48.742188 109.25 47.136719 111.929688 45.53125 C 110.863281 49.28125 108.179688 51.960938 104.96875 54.101562 C 108.179688 53.5625 110.863281 53.03125 114.074219 51.417969 C 111.917969 54.644531 109.242188 57.320312 106.5625 59.460938 Z M 106.5625 59.460938 "/>
</g>
</svg>
